<svg version="1.1" id="emblem" xmlns="http://www.w3.org/2000/svg" xmlns:xlink="http://www.w3.org/1999/xlink" x="0px" y="0px"
	 viewBox="0 0 253 259.5" enable-background="new 0 0 253 259.5" xml:space="preserve">

<defs>
	<style type="text/css">


		#medium { display:block; }

		#leaf:hover {
			fill:#01491e;
		}

		#emblem {
			transition: all .2s ease-in-out;
			cursor:pointer;
		}

		#emblem:hover {
			transform: scale(0.7);
			-webkit-transform-origin: 50% 50%;
		}

		@media only screen and (max-width: 180px) {

			#medium {
				display:none;
			}

		}


		@media only screen and (max-width: 120px) {

			#copy, #first-stroke {
				display:none;
			}

			#thick-stroke {
				stroke-width:0;
				fill:#047F39;
			}

			#leaf {
				fill:#ffffff;
			}

			#emblem:hover {
				-webkit-animation: animCircle 2s linear infinite;
				-webkit-transform-origin: 50% 50%;
			}

		}

		@-webkit-keyframes animCircle {

			from {
				-webkit-transform: rotate(0deg);
			}
			to {
				-webkit-transform: rotate(360deg);
			}

		}

		@-webkit-keyframes clickedEmblem {

			0% {
				opacity: 1;
				-webkit-transform: rotate(0deg);
				-webkit-transform-origin: 50% 50%;
			}

			50% {
				opacity: 0;
			}

			100% {
				opacity 1;
				-webkit-transform: rotate(360deg);
				-webkit-transform-origin: 50% 50%;
			}

		}

		#emblem.onclick .disappear {

			-webkit-animation: clickedEmblem 1s;


		}

	
	</style>
	<script type="text/javascript">

		var emblemClick = document.querySelector('#emblem');

		emblemClick.addEventListener('click', function () {

			this.classList.toggle('onclick');

		});

	</script>

</defs>




<circle fill="none" id="thick-stroke" class="disappear" stroke="#047F39" stroke-width="32" stroke-miterlimit="10" cx="127.2" cy="131.3" r="98"/>
<path fill="#047F39" id="leaf" d="M92.7,157.9c0,0-3.3-41.1,32-47.7c35.3-6.5,35.9-36.4,35.9-36.4s16.5,91-64.5,86.6c0,0-8.2,6.4-8.2,14.4
	s6.2,9.9,6.2,9.9s0.3,3.7-3.7,3.7c0,0-7.7-8-5.9-16S92.7,157.9,92.7,157.9z"/>
<g id="copy" class="disappear">
	<circle fill="none" id="first-stroke" stroke="#047F39" stroke-width="2" stroke-miterlimit="10" cx="127.2" cy="131.3" r="121"/>
	<g>
		<path fill="#FFFFFF" d="M37.7,107.1c0.5-0.4,1-1.2,1.3-2c0.5-1.5-0.3-2.8-1.8-3.3c-1.4-0.4-2.5,0.1-3.7,1c-1.2,0.9-3.1,2.1-5,1.5
			c-2.3-0.7-3.4-2.8-2.7-5.1c0.3-0.9,0.8-1.7,1.2-1.9l1.3,0.9c-0.4,0.3-0.8,0.8-1.1,1.6c-0.5,1.5,0.4,2.5,1.5,2.8
			c1.5,0.5,2.3-0.1,3.7-1.2c1.8-1.4,3.4-1.8,5.1-1.3c2.6,0.8,3.6,3.1,2.9,5.5c-0.3,1-1,2-1.4,2.3L37.7,107.1z"/>
		<path fill="#FFFFFF" d="M39.5,94.1l3.8,2.9l-0.7,1.6l-12.8-9.6l0.8-1.8l15.6,3.2l-0.7,1.6l-4.7-1L39.5,94.1z M39.5,90.5l-3.9-0.9
			c-1.1-0.2-2.4-0.6-3.5-0.9l0,0.1c1,0.7,2.1,1.4,3,2l3.3,2.4L39.5,90.5z"/>
		<path fill="#FFFFFF" d="M36.3,79.5L34.9,82l-1.4-0.8l3.8-6.5l1.4,0.8L37.2,78l12.1,7l-0.9,1.5L36.3,79.5z"/>
		<path fill="#FFFFFF" d="M41.2,69l12.7,9l-1,1.5l-12.7-9L41.2,69z"/>
		<path fill="#FFFFFF" d="M55,73.2c0.6-0.2,1.4-0.7,1.9-1.3c1.1-1.2,0.9-2.7-0.3-3.7c-1.1-0.9-2.3-0.9-3.8-0.6
			c-1.4,0.4-3.7,0.7-5.2-0.6c-1.8-1.5-2-3.9-0.4-5.8c0.6-0.7,1.4-1.2,1.9-1.3l0.9,1.3c-0.5,0.1-1.1,0.4-1.6,1.1
			c-1,1.2-0.6,2.5,0.2,3.1c1.2,1,2.2,0.8,3.9,0.4c2.2-0.6,3.8-0.3,5.2,0.9c2,1.8,2.1,4.3,0.5,6.2c-0.7,0.8-1.7,1.4-2.2,1.6L55,73.2z
			"/>
		<path fill="#FFFFFF" d="M53,55.3l4.4-4l1.1,1.1l-3,2.8l3.7,4l2.8-2.6l1,1.1l-2.8,2.6l4.8,5.2l-1.3,1.2L53,55.3z"/>
		<path fill="#FFFFFF" d="M68.9,55.9l1.9,4.4l-1.4,1L63,46.7l1.6-1.2L76.7,56l-1.4,1l-3.6-3.1L68.9,55.9z M70.6,52.9l-3-2.7
			c-0.8-0.8-1.8-1.7-2.6-2.5l-0.1,0.1c0.6,1.1,1.2,2.3,1.6,3.2l1.7,3.7L70.6,52.9z"/>
		<path fill="#FFFFFF" d="M85.3,50.6c-0.3,0.5-0.9,1-1.7,1.5c-2.6,1.5-5.7,0.5-8.4-4.1c-3.1-5.3-1.4-8.6,0.7-9.8
			c0.8-0.5,1.5-0.6,1.9-0.6l0.4,1.5c-0.4,0-0.8,0.1-1.5,0.5c-1.4,0.8-2.3,3.2,0,7.3c2.4,4.1,4.7,4.6,6.3,3.7c0.6-0.3,1-0.8,1.3-1.1
			L85.3,50.6z"/>
		<path fill="#FFFFFF" d="M85.2,35.6l-2.6,1.1l-0.6-1.5l6.9-2.9l0.6,1.5l-2.6,1.1l5.5,12.9l-1.6,0.7L85.2,35.6z"/>
		<path fill="#FFFFFF" d="M95.3,30.1l4.8,14.8l-1.7,0.5l-4.8-14.8L95.3,30.1z"/>
		<path fill="#FFFFFF" d="M111,34.1c1.2,5.7-0.3,8.3-2.7,8.9c-2.5,0.5-4.8-1.8-5.9-6.9c-1.1-5,0.1-8.2,2.8-8.7
			C107.8,26.7,109.9,29.2,111,34.1z M104.2,35.6c0.7,3.1,2,6.1,3.9,5.7c2-0.4,1.8-3.9,1.1-6.8c-0.6-2.8-1.9-6.1-3.8-5.7
			C103.5,29.2,103.5,32.5,104.2,35.6z"/>
		<path fill="#FFFFFF" d="M116.5,41.3l-1.1-15.5l1.7-0.1l3.4,7.1c0.8,1.6,1.7,3.6,2.4,5.3l0,0c-0.3-2.4-0.5-4.4-0.7-7.1l-0.4-5.6
			l1.6-0.1l1.1,15.5l-1.7,0.1l-3.5-7.3c-0.7-1.5-1.5-3.2-2.2-5.1l0,0c0.3,2.1,0.5,4,0.7,7.4l0.4,5.4L116.5,41.3z"/>
		<path fill="#FFFFFF" d="M142.4,41.5c-0.7,0.2-1.8,0.3-2.8,0.2c-1.4-0.2-2.6-0.7-3.5-2c-1-1.3-1.5-3.6-1.1-6.4
			c0.8-6,4.1-7.7,6.8-7.3c1,0.1,1.7,0.4,2.1,0.7l-0.6,1.5c-0.4-0.3-0.9-0.5-1.7-0.6c-1.9-0.2-4.2,1-4.8,5.8c-0.6,4.8,1,6.5,2.9,6.8
			c0.6,0.1,1,0,1.1,0l0.6-5l-2-0.3l0.2-1.5l3.7,0.5L142.4,41.5z"/>
		<path fill="#FFFFFF" d="M152.2,28.1l-2.7,10.1c-0.7,2.7-0.1,3.9,1.1,4.2c1.3,0.3,2.3-0.4,3-3.1l2.7-10.1l1.7,0.5l-2.6,9.8
			c-1,3.9-3,5-5.3,4.4c-2.3-0.6-3.3-2.5-2.4-6.2l2.7-10L152.2,28.1z"/>
		<path fill="#FFFFFF" d="M161.6,42.5l-2.7,3.9l-1.6-0.6l9.2-13.1l1.8,0.7l-2.7,15.7l-1.6-0.7l0.8-4.7L161.6,42.5z M165.1,42.4
			l0.8-4c0.2-1.1,0.5-2.4,0.8-3.5l-0.1,0c-0.6,1-1.3,2.2-1.9,3.1l-2.2,3.4L165.1,42.4z"/>
		<path fill="#FFFFFF" d="M176.6,37.6c0.8,0.2,1.6,0.6,2.4,1c1.3,0.8,2.2,1.6,2.5,2.7c0.3,1.1,0,2.1-0.6,3.2c-1,1.7-2.4,2.4-4.1,2.2
			l0,0c0.8,0.9,0.8,2.1,0.1,4.1c-0.8,2-1.1,3.3-1.2,3.9l-1.6-0.9c0-0.5,0.5-2,1.2-3.8c0.7-2,0.6-3.1-0.8-3.8l-0.6-0.3l-3.4,5.9
			l-1.5-0.9L176.6,37.6z M174.6,44.7l0.6,0.4c1.5,0.8,3.1,0.3,4-1.3c0.9-1.6,0.8-2.9-0.9-3.9c-0.3-0.2-0.6-0.3-0.8-0.4L174.6,44.7z"
			/>
		<path fill="#FFFFFF" d="M183.1,54.2l-3.6,3.1l-1.4-1l12.2-10.3l1.6,1.2l-6.6,14.5l-1.4-1.1l2-4.4L183.1,54.2z M186.5,55l1.7-3.6
			c0.5-1,1.1-2.2,1.6-3.2l-0.1-0.1c-0.9,0.8-1.8,1.8-2.6,2.5l-3,2.7L186.5,55z"/>
		<path fill="#FFFFFF" d="M188.1,64.1l11-11.1l1.2,1.2l-3.1,7.2c-0.7,1.6-1.6,3.7-2.4,5.3l0,0c1.6-1.8,3-3.3,4.9-5.2l3.9-4l1.1,1.1
			l-11,11.1l-1.2-1.2l3.2-7.4c0.7-1.6,1.4-3.3,2.4-5.1l0,0c-1.4,1.6-2.7,3-5.1,5.4l-3.8,3.8L188.1,64.1z"/>
		<path fill="#FFFFFF" d="M208.9,66l-1.8-2.2l1.3-1l4.6,5.9l-1.3,1l-1.8-2.2l-11,8.6l-1.1-1.4L208.9,66z"/>
		<path fill="#FFFFFF" d="M212.1,82.3l-2.1-3.3l-5,3.1l2.3,3.8l-1.3,0.8l-3.3-5.3l13.2-8.2l3.1,5.1l-1.3,0.8l-2.2-3.5l-4.4,2.7
			l2.1,3.3L212.1,82.3z"/>
		<path fill="#FFFFFF" d="M217,92l-1.7-3.5L210,91l1.9,4l-1.4,0.7l-2.7-5.6l14.1-6.7l2.5,5.4l-1.4,0.7l-1.8-3.8l-4.6,2.2l1.7,3.5
			L217,92z"/>
		<path fill="#FFFFFF" d="M226.5,94.3c0.4,0.6,0.8,1.3,1,2.2c0.5,1.6,0.5,2.8,0,3.8c-0.6,1.5-2.2,3-5.3,4c-3.4,1.1-5.5,0.9-6.8,0.3
			c-1.4-0.6-2.4-1.8-3-3.5c-0.2-0.7-0.4-1.4-0.5-1.9L226.5,94.3z M213.9,100.4c0,0.3,0.1,0.5,0.2,0.7c0.6,1.9,2.6,3.2,7.6,1.5
			c3.7-1.2,5.4-3.1,4.6-5.4c-0.1-0.3-0.2-0.6-0.4-0.8L213.9,100.4z"/>
	</g>
	<g>
		<path fill="#FFFFFF" d="M58.2,193c0.6,0.4,1.3,0.9,1.8,1.5c1,1,1.5,2,1.5,3c0,1-0.5,1.9-1.3,2.6c-1.3,1.2-2.7,1.4-4.2,0.9l0,0
			c0.5,1,0.1,2.1-1,3.6c-1.2,1.6-1.9,2.6-2.1,3.1l-1.1-1.2c0.2-0.4,0.9-1.6,2-3c1.2-1.6,1.3-2.5,0.3-3.5l-0.4-0.5l-4.5,4.3l-1.1-1.2
			L58.2,193z M54.5,198.6l0.5,0.5c1.1,1.1,2.6,1.1,3.8-0.1c1.2-1.1,1.5-2.3,0.3-3.6c-0.2-0.2-0.4-0.4-0.6-0.6L54.5,198.6z"/>
		<path fill="#FFFFFF" d="M63.8,208.3l-2.7-2.3l-3.5,4l3,2.7l-0.9,1.1l-4.3-3.7l9.3-10.7l4.1,3.5l-0.9,1.1l-2.8-2.5L62,205l2.7,2.3
			L63.8,208.3z"/>
		<path fill="#FFFFFF" d="M71.4,206.7l-2.1-1.5l0.9-1.2l5.5,4l-0.9,1.2l-2.1-1.5l-7.5,10.3l-1.3-1L71.4,206.7z"/>
		<path fill="#FFFFFF" d="M78.8,210l-4.8,8.2c-1.3,2.2-1,3.4-0.1,3.9c1,0.6,2.2,0.2,3.4-1.9l4.8-8.2l1.4,0.8l-4.7,8
			c-1.9,3.2-3.9,3.6-5.7,2.6c-1.8-1.1-2.3-3-0.6-6l4.8-8.1L78.8,210z"/>
		<path fill="#FFFFFF" d="M86.2,214.3c0.7,0.1,1.5,0.4,2.2,0.7c1.3,0.6,2.1,1.3,2.5,2.2c0.3,0.9,0.2,1.9-0.2,2.9
			c-0.7,1.6-2,2.4-3.6,2.4l0,0c0.8,0.7,0.9,1.9,0.4,3.7c-0.5,1.9-0.7,3.1-0.8,3.6l-1.5-0.7c0-0.5,0.3-1.8,0.8-3.5
			c0.5-1.9,0.3-2.8-1-3.4l-0.6-0.3l-2.5,5.6l-1.5-0.7L86.2,214.3z M84.9,220.9l0.6,0.3c1.4,0.6,2.8,0,3.5-1.5
			c0.7-1.5,0.5-2.7-1.1-3.4c-0.3-0.1-0.6-0.2-0.8-0.3L84.9,220.9z"/>
		<path fill="#FFFFFF" d="M90.1,231.2l4.5-13.4l1.5,0.5l0.4,7.1c0.1,1.6,0.2,3.6,0.2,5.3l0,0c0.6-2.2,1.1-3.9,1.9-6.2l1.6-4.8
			l1.4,0.5L97,233.5l-1.5-0.5l-0.4-7.3c-0.1-1.5-0.2-3.3-0.1-5.1l0,0c-0.5,1.8-1,3.6-2,6.4l-1.5,4.6L90.1,231.2z"/>
		<path fill="#FFFFFF" d="M110,222l-1.6,9.4c-0.4,2.5,0.3,3.5,1.3,3.7c1.2,0.2,2.1-0.6,2.5-3l1.6-9.4l1.6,0.3l-1.5,9.1
			c-0.6,3.6-2.3,4.8-4.4,4.4c-2.1-0.4-3.2-2-2.6-5.4l1.6-9.3L110,222z"/>
		<path fill="#FFFFFF" d="M118.4,223.5c0.7-0.1,1.4-0.2,2.4-0.1c1.3,0.1,2.4,0.5,3.1,1.3c0.6,0.7,0.9,1.8,0.9,3
			c-0.1,1.3-0.5,2.2-1,2.8c-0.8,1-2.2,1.4-3.4,1.4c-0.3,0-0.5,0-0.7-0.1l-0.4,5.8l-1.6-0.1L118.4,223.5z M119.6,230.4
			c0.2,0.1,0.4,0.1,0.6,0.1c1.6,0.1,2.7-0.9,2.9-2.9c0.1-1.4-0.4-2.8-2.2-2.9c-0.4,0-0.7,0-0.9,0L119.6,230.4z"/>
		<path fill="#FFFFFF" d="M132.6,225l-2.6,0.2l-0.1-1.4l6.8-0.4l0.1,1.4l-2.6,0.2l0.8,12.7l-1.6,0.1L132.6,225z"/>
		<path fill="#FFFFFF" d="M146.6,228.8c0.8,5.2-0.7,7.5-2.9,7.9c-2.3,0.4-4.3-1.9-5-6.6c-0.7-4.6,0.5-7.4,3-7.8
			C144,222,145.9,224.3,146.6,228.8z M140.3,229.9c0.5,2.9,1.5,5.7,3.2,5.4c1.8-0.3,1.8-3.4,1.4-6.1c-0.4-2.6-1.4-5.6-3.2-5.3
			C140,224.1,139.9,227.1,140.3,229.9z"/>
		<path fill="#FFFFFF" d="M157.6,220.3c-0.3,0.1-0.5,0.2-0.9,0.4c-2,1.2-2.2,3.6-1.9,5.7l0.1,0c0.3-0.9,0.8-1.6,1.8-1.9
			c1.7-0.5,3.3,0.7,4.1,3.1c0.8,2.5,0.3,4.8-1.8,5.5c-2.3,0.7-4.1-1.2-5.1-4.2c-0.8-2.5-0.7-4.7-0.1-6.4c0.4-1.3,1.5-2.5,2.5-3
			c0.4-0.2,0.7-0.3,0.9-0.4L157.6,220.3z M159.3,228.3c-0.6-2-1.6-2.7-2.7-2.4c-0.6,0.2-1.2,0.8-1.3,1.9c0,0.2,0,0.4,0.1,0.8
			c0.8,2.7,2.1,3.6,3.1,3.3C159.5,231.7,160,230.5,159.3,228.3z"/>
		<path fill="#FFFFFF" d="M168.7,221.9c1.9,4.6,1.2,7.1-0.6,7.8c-2,0.8-4.1-1-5.8-5.1c-1.8-4.2-1.4-7,0.6-7.9
			C165,216,167.1,217.9,168.7,221.9z M163.8,224c1.3,3,2.7,5,3.9,4.4c1.2-0.5,0.8-2.8-0.5-5.9c-1.2-2.9-2.6-5-3.8-4.5
			C162.2,218.6,162.6,221,163.8,224z"/>
		<path fill="#FFFFFF" d="M171.8,212.5c0.4-0.5,1-0.9,1.7-1.4c1.3-0.8,2.4-1,3.4-0.8c1.4,0.3,3.1,1.4,4.6,3.9c1.7,2.8,1.9,4.7,1.6,6
			c-0.3,1.4-1.2,2.5-2.6,3.3c-0.6,0.3-1.2,0.6-1.6,0.8L171.8,212.5z M179.7,222.5c0.2-0.1,0.4-0.2,0.5-0.3c1.5-0.9,2.4-2.9-0.1-7
			c-1.8-3.1-3.8-4.2-5.7-3c-0.2,0.1-0.5,0.3-0.6,0.5L179.7,222.5z"/>
		<path fill="#FFFFFF" d="M187.1,214.2l1.8,4l-1.2,0.9l-5.9-13.3l1.4-1.1l11,9.5l-1.3,1l-3.3-2.8L187.1,214.2z M188.6,211.4
			l-2.7-2.4c-0.8-0.7-1.6-1.5-2.4-2.3l-0.1,0c0.5,1,1.1,2.1,1.5,2.9l1.6,3.3L188.6,211.4z"/>
		<path fill="#FFFFFF" d="M197.6,211.2l-4-4.5l-7.8-4l1.3-1.1l3.3,1.8c0.9,0.5,1.9,1.1,2.9,1.7l0,0c-0.5-1-1-2-1.4-3.1l-1.4-3.4
			l1.3-1.1l3,8.2l4,4.5L197.6,211.2z"/>
		<path fill="#FFFFFF" d="M201.8,204.8c0.6-0.1,1.3-0.6,1.8-1.1c1-1.1,0.9-2.4-0.1-3.4c-1-0.9-2.1-0.9-3.4-0.6
			c-1.3,0.3-3.4,0.5-4.7-0.7c-1.6-1.5-1.7-3.6-0.2-5.3c0.6-0.6,1.3-1,1.7-1.1l0.7,1.2c-0.4,0.1-1,0.4-1.5,0.9
			c-0.9,1-0.6,2.2,0.1,2.9c1,1,1.9,0.8,3.6,0.5c2-0.4,3.5-0.1,4.7,1c1.8,1.7,1.7,4,0.2,5.6c-0.7,0.7-1.6,1.2-2.1,1.3L201.8,204.8z"
			/>
	</g>
	<path fill="#FFFFFF" d="M98.8,154.7c0,0,1-0.6,2.7-1.6c1.7-1,4.1-2.6,6.9-4.5c2.9-1.9,6.1-4.1,9.6-6.6c1.7-1.2,3.5-2.6,5.3-3.9
		c1.8-1.4,3.5-2.8,5.3-4.2c1.8-1.4,3.5-2.9,5.1-4.4c1.6-1.5,3.2-3,4.7-4.5c1.5-1.5,2.9-3,4.1-4.5c0.6-0.7,1.2-1.5,1.8-2.2
		c0.6-0.7,1.1-1.4,1.6-2.1c1-1.4,1.9-2.6,2.6-3.8c0.8-1.2,1.3-2.2,1.8-3.1c0.5-0.9,0.8-1.6,1-2.1c0.2-0.5,0.4-0.7,0.4-0.7
		s-0.1,0.3-0.3,0.8c-0.2,0.5-0.4,1.3-0.8,2.2c-0.4,0.9-0.9,2.1-1.5,3.3c-0.6,1.3-1.4,2.6-2.3,4.1c-0.5,0.7-1,1.5-1.5,2.2
		c-0.6,0.7-1.1,1.5-1.7,2.3c-0.6,0.8-1.2,1.6-1.9,2.4c-0.7,0.8-1.4,1.6-2.1,2.4c-1.5,1.6-3,3.2-4.7,4.7c-1.7,1.6-3.4,3.1-5.1,4.5
		c-1.8,1.5-3.6,2.9-5.4,4.2c-1.8,1.3-3.6,2.6-5.4,3.8c-1.8,1.2-3.5,2.3-5.2,3.3c-1.7,1-3.3,2-4.8,2.8c-3,1.7-5.6,2.9-7.4,3.8
		C99.8,154.3,98.8,154.7,98.8,154.7z"/>
</g>
<g id="medium" class="disappear">
	<path fill="none" stroke="#047F39" stroke-width="2" stroke-miterlimit="10" d="M79.7,170.1c-8.6-10.6-13.8-24-13.8-38.7
		c0-33.9,27.4-61.3,61.3-61.3c9.8,0,19.1,2.3,27.3,6.4"/>
	<path fill="none" stroke="#047F39" stroke-width="2" stroke-miterlimit="10" d="M167,84.7c13.2,11.2,21.6,28,21.6,46.7
		c0,33.9-27.4,61.3-61.3,61.3c-10.6,0-20.5-2.7-29.2-7.4"/>
	<path fill="none" stroke="#FFFFFF" stroke-width="2" stroke-miterlimit="10" d="M49.9,191.5c-12.9-16.6-20.7-37.5-20.7-60.2
		c0-5.8,0.5-11.6,1.5-17.1"/>
	<path fill="none" stroke="#FFFFFF" stroke-width="2" stroke-miterlimit="10" d="M223,110.3c1.5,6.8,2.3,13.8,2.3,21
		c0,22.2-7.4,42.7-19.9,59.2"/>
	<path fill="#FFFFFF" d="M101.5,149.1c0,0-0.4-0.9-0.7-2.2c-0.2-0.7-0.3-1.5-0.4-2.3c-0.1-0.9-0.2-1.8-0.2-2.7c0-0.9,0-1.9,0.2-2.7
		c0.1-0.9,0.3-1.7,0.5-2.3c0.2-0.7,0.4-1.2,0.6-1.6c0.2-0.4,0.3-0.6,0.3-0.6s0,0.2-0.1,0.6c-0.1,0.4-0.1,1-0.2,1.6
		c0,0.3,0,0.7-0.1,1.1c0,0.4,0,0.8-0.1,1.2c0,0.4,0,0.9,0,1.3c0,0.4,0,0.9,0,1.3c0,1.8,0.1,3.6,0.2,5
		C101.5,148.2,101.5,149.1,101.5,149.1z"/>
	<path fill="#FFFFFF" d="M107.6,144c0,0-0.1-0.3-0.2-0.8c-0.1-0.5-0.3-1.2-0.4-2.1c-0.1-0.9-0.3-1.9-0.3-3c-0.1-1.1-0.1-2.3,0-3.5
		c0.1-1.2,0.2-2.4,0.4-3.5c0.1-0.5,0.2-1.1,0.3-1.6c0.1-0.5,0.2-1,0.4-1.4c0.3-0.8,0.6-1.5,0.8-2c0.2-0.5,0.4-0.7,0.4-0.7
		s-0.1,0.3-0.2,0.8c-0.1,0.3-0.1,0.5-0.2,0.9c-0.1,0.4-0.1,0.7-0.2,1.2c-0.1,0.4-0.1,0.9-0.2,1.4c-0.1,0.5-0.1,1-0.2,1.6
		c-0.1,0.5-0.1,1.1-0.1,1.7c-0.1,0.6-0.1,1.1-0.1,1.7c-0.1,2.3-0.1,4.6-0.1,6.4C107.6,142.8,107.6,144,107.6,144z"/>
	<path fill="#FFFFFF" d="M113.4,140.5c0,0-0.1-0.3-0.2-0.9c-0.1-0.6-0.2-1.4-0.3-2.4c-0.1-1-0.1-2.2-0.1-3.4c0-1.3,0.1-2.6,0.3-3.9
		c0.2-1.3,0.4-2.6,0.7-3.9c0.2-0.6,0.3-1.2,0.5-1.7c0.2-0.5,0.3-1.1,0.5-1.5c0.4-0.9,0.8-1.7,1-2.2c0.3-0.5,0.5-0.8,0.5-0.8
		s-0.1,0.3-0.3,0.9c-0.1,0.3-0.2,0.6-0.3,1c-0.1,0.4-0.2,0.8-0.4,1.3c-0.1,0.5-0.2,1-0.4,1.5c-0.1,0.5-0.2,1.1-0.4,1.7
		c-0.1,0.6-0.2,1.2-0.3,1.9c-0.1,0.6-0.2,1.3-0.3,1.9c-0.3,2.6-0.5,5.2-0.6,7.2c0,1-0.1,1.8-0.1,2.4
		C113.4,140.2,113.4,140.5,113.4,140.5z"/>
	<path fill="#FFFFFF" d="M118.7,135.6c0,0,0-0.3,0-0.9c0-0.6,0-1.4,0.1-2.3c0.1-1,0.2-2.1,0.4-3.3c0.2-1.2,0.5-2.4,0.8-3.7
		c0.4-1.2,0.8-2.5,1.2-3.6c0.2-0.6,0.5-1.1,0.7-1.6c0.3-0.5,0.5-1,0.7-1.4c0.5-0.8,1-1.5,1.3-1.9c0.3-0.4,0.5-0.7,0.5-0.7
		s-0.1,0.3-0.4,0.8c-0.1,0.2-0.3,0.5-0.4,0.9c-0.2,0.4-0.3,0.8-0.5,1.2c-0.2,0.4-0.4,0.9-0.6,1.4c-0.2,0.5-0.4,1-0.6,1.6
		c-0.2,0.5-0.4,1.1-0.6,1.7c-0.2,0.6-0.4,1.2-0.5,1.8c-0.7,2.4-1.2,4.9-1.6,6.7c-0.2,0.9-0.4,1.7-0.5,2.3
		C118.8,135.3,118.7,135.6,118.7,135.6z"/>
	<path fill="#FFFFFF" d="M126.6,130.4c0,0,0-0.3,0-0.8c0.1-0.5,0.1-1.2,0.3-2.1c0.1-0.9,0.3-1.9,0.6-2.9c0.3-1.1,0.6-2.2,1.1-3.3
		c0.4-1.1,0.9-2.2,1.4-3.1c0.3-0.5,0.5-0.9,0.8-1.4c0.3-0.4,0.5-0.8,0.8-1.2c0.5-0.7,1-1.3,1.4-1.6c0.4-0.4,0.6-0.6,0.6-0.6
		s-0.1,0.3-0.4,0.7c-0.1,0.2-0.3,0.5-0.5,0.8c-0.2,0.3-0.3,0.7-0.6,1c-0.2,0.4-0.4,0.8-0.6,1.2c-0.2,0.4-0.4,0.9-0.7,1.4
		c-0.2,0.5-0.4,1-0.7,1.5c-0.2,0.5-0.4,1-0.6,1.6c-0.8,2.1-1.5,4.3-2.1,5.9C126.9,129.3,126.6,130.4,126.6,130.4z"/>
	<path fill="#FFFFFF" d="M135,123.4c0,0,0-0.9,0.3-2.2c0.1-0.6,0.3-1.4,0.6-2.2c0.2-0.8,0.6-1.6,0.9-2.4c0.4-0.8,0.8-1.6,1.2-2.3
		c0.4-0.7,0.9-1.3,1.3-1.8c0.4-0.5,0.8-0.9,1.1-1.1c0.3-0.2,0.5-0.4,0.5-0.4s-0.1,0.2-0.3,0.5c-0.2,0.3-0.5,0.8-0.8,1.3
		c-0.6,1.1-1.4,2.6-2.1,4.2c-0.7,1.5-1.3,3.1-1.8,4.3C135.3,122.6,135,123.4,135,123.4z"/>
	<path fill="#FFFFFF" d="M107.9,154.7c0,0,0.9-0.1,2.2-0.1c0.6,0,1.4-0.1,2.2-0.1c0.8-0.1,1.7-0.1,2.5-0.2c1.7-0.1,3.4-0.3,4.7-0.4
		c0.6-0.1,1.2-0.1,1.6-0.2c0.4,0,0.6-0.1,0.6-0.1s-0.2,0.1-0.6,0.2c-0.4,0.2-0.9,0.4-1.5,0.5c-0.6,0.2-1.4,0.4-2.2,0.5
		c-0.8,0.2-1.7,0.3-2.5,0.3c-1.7,0.1-3.5,0.1-4.8-0.1C108.8,155,107.9,154.7,107.9,154.7z"/>
	<path fill="#FFFFFF" d="M115.8,150.4c0,0,0.9,0,2.2,0c0.6,0,1.4,0,2.2,0c0.8,0,1.7,0,2.5,0c1.7,0,3.4-0.1,4.7-0.1
		c0.6,0,1.2,0,1.6-0.1c0.4,0,0.6,0,0.6,0s-0.2,0.1-0.6,0.2c-0.4,0.1-0.9,0.3-1.5,0.4c-0.6,0.2-1.4,0.3-2.2,0.4
		c-0.8,0.1-1.7,0.1-2.6,0.2c-1.8,0-3.5-0.2-4.8-0.5C116.6,150.7,115.8,150.4,115.8,150.4z"/>
	<path fill="#FFFFFF" d="M121.7,146.9c0,0,1.1,0,2.7-0.1c0.8,0,1.7-0.1,2.7-0.1c1-0.1,2.1-0.1,3.1-0.2c2.1-0.1,4.2-0.4,5.8-0.6
		c0.8-0.1,1.5-0.2,1.9-0.3c0.5-0.1,0.7-0.1,0.7-0.1s-0.2,0.1-0.7,0.3c-0.4,0.2-1.1,0.4-1.9,0.6c-0.4,0.1-0.8,0.2-1.3,0.3
		c-0.5,0.1-0.9,0.2-1.4,0.3c-1,0.2-2.1,0.3-3.2,0.4c-2.2,0.2-4.3,0.1-5.9-0.1c-0.8-0.1-1.5-0.2-1.9-0.3
		C121.9,147,121.7,146.9,121.7,146.9z"/>
	<path fill="#FFFFFF" d="M127.6,142.6c0,0,1.1-0.2,2.6-0.5c0.8-0.1,1.7-0.3,2.7-0.5c1-0.2,2-0.4,3.1-0.6c2.1-0.4,4.1-0.9,5.7-1.3
		c0.8-0.2,1.4-0.4,1.9-0.5c0.5-0.1,0.7-0.2,0.7-0.2s-0.2,0.1-0.6,0.4c-0.4,0.2-1,0.6-1.8,0.9c-0.4,0.2-0.8,0.3-1.2,0.5
		c-0.4,0.2-0.9,0.3-1.4,0.5c-1,0.3-2,0.6-3.1,0.8c-2.1,0.4-4.3,0.7-5.9,0.7c-0.8,0-1.5,0-2,0C127.8,142.6,127.6,142.6,127.6,142.6z"
		/>
	<path fill="#FFFFFF" d="M133.6,137.7c0,0,0.8-0.3,2.1-0.6c0.6-0.2,1.4-0.4,2.1-0.6c0.8-0.2,1.6-0.5,2.4-0.8
		c1.7-0.5,3.3-1.1,4.5-1.5c0.6-0.2,1.1-0.4,1.5-0.5c0.4-0.1,0.6-0.2,0.6-0.2s-0.2,0.1-0.5,0.4c-0.3,0.2-0.8,0.6-1.3,0.9
		c-0.6,0.3-1.3,0.7-2,1c-0.8,0.3-1.6,0.7-2.4,0.9c-1.7,0.5-3.4,0.9-4.8,1C134.5,137.8,133.6,137.7,133.6,137.7z"/>
	<path fill="#FFFFFF" d="M140.1,131.7c0,0,0.8-0.4,2-1c0.6-0.3,1.3-0.6,2-1c0.7-0.4,1.5-0.7,2.3-1.2c1.5-0.8,3.1-1.6,4.2-2.3
		c0.6-0.3,1.1-0.6,1.4-0.8c0.3-0.2,0.5-0.3,0.5-0.3s-0.2,0.2-0.4,0.4c-0.3,0.3-0.7,0.7-1.2,1.1c-0.5,0.4-1.1,0.9-1.8,1.4
		c-0.7,0.5-1.5,0.9-2.2,1.3c-1.6,0.8-3.2,1.4-4.5,1.8C140.9,131.6,140.1,131.7,140.1,131.7z"/>
</g>
</svg>
